# xmcd
#
# Track frame offsets:
#	150
#	11355
#	20769
#	34578
#	45594
#	57236
#	69750
#	80866
#	91013
#	102232
#	113277
#	124626
#	135886
#	148899
#	161575
#	172071
#
# Disc length: 2442 seconds
# Revision: 1
# Processed by: cddbd v1.5.2PL0 Copyright (c) Steve Scherf et al.
# Submitted via: dBpowerAMP V12.0
#
DISCID=c4098810
DTITLE=Patsy Cline - The Essential First Recordings
DYEAR=2004
DGENRE=Country
TTITLE0=Hidin Out
TTITLE1=Come On In and Make Yourself at Home
TTITLE2=A Church A Courtroom and Then Goodbye
TTITLE3=I Cried All The Way To The Alter
TTITLE4=Walkin After Midnight
TTITLE5=A Poor Man's Roses Or A Rich Man's Gold
TTITLE6=A Stranger In My Arms
TTITLE7=Three Cigarettes In An Ashtray
TTITLE8=Hungry For Love
TTITLE9=Stop The World and Let Me Off
TTITLE10=Cry Not For Me
TTITLE11=Just Out Of Reach Of My Two Open Arms
TTITLE12=Life's Railway To Heaven
TTITLE13=Just A Closer Walk With Thee
TTITLE14=Lovesick Blues
TTITLE15=There He Goes
EXTD=
EXTT0=
EXTT1=
EXTT2=
EXTT3=
EXTT4=
EXTT5=
EXTT6=
EXTT7=
EXTT8=
EXTT9=
EXTT10=
EXTT11=
EXTT12=
EXTT13=
EXTT14=
EXTT15=
PLAYORDER=
